HIERARCHY
ROOT pelvis
{
  OFFSET 0 100 0
  CHANNELS 6 Xposition Yposition Zposition Zrotation Xrotation Yrotation
  JOINT pelvis_right_femur
  {
    OFFSET -10.78128 -3.44521 -0.5502486
    CHANNELS 3 Zrotation Xrotation Yrotation
    JOINT right_femur_tibia
    {
      OFFSET -0.8047443 -44.0398 -0.1307829
      CHANNELS 3 Zrotation Xrotation Yrotation
      JOINT right_tibia_foot
      {
        OFFSET 3.006224 -47.83518 -5
        CHANNELS 3 Zrotation Xrotation Yrotation
        End Site
        {
          OFFSET 0 -5 15
        }
      }
    }
  }
  JOINT pelvis_left_femur
  {
    OFFSET 10.78128 -3.44521 -0.5502486
    CHANNELS 3 Zrotation Xrotation Yrotation
    JOINT left_femur_tibia
    {
      OFFSET 0.8047443 -44.0398 -0.1307829
      CHANNELS 3 Zrotation Xrotation Yrotation
      JOINT left_tibia_foot
      {
        OFFSET -4.370144 -48.10324 -4.275266
        CHANNELS 3 Zrotation Xrotation Yrotation
        End Site
        {
          OFFSET 0 -5 15
        }
      }
    }
  }
  JOINT pelvis_spine1
  {
    OFFSET 0 6.468898 -3.129235
    CHANNELS 3 Zrotation Xrotation Yrotation
    JOINT spine1
    {
      OFFSET 0 23.15396 4.99043
      CHANNELS 3 Zrotation Xrotation Yrotation
      JOINT spine2
      {
        OFFSET 0 20.79997 -5.064912
        CHANNELS 3 Zrotation Xrotation Yrotation
        JOINT neck
        {
          OFFSET 0 14.38658 9.616178
          CHANNELS 3 Zrotation Xrotation Yrotation
          End Site
          {
            OFFSET 0 20 0
          }
        }
      }
      JOINT right_manubrium
      {
        OFFSET -5.722621 16.35077 3.967754
        CHANNELS 3 Zrotation Xrotation Yrotation
        JOINT right_clavicle
        {
          OFFSET -13.16364 1.694482 -4.693211
          CHANNELS 3 Zrotation Xrotation Yrotation
          JOINT right_humerus
          {
            OFFSET -28.5034 -0.3100689 -2.792744
            CHANNELS 3 Zrotation Xrotation Yrotation
            JOINT right_radius
            {
              OFFSET -25.15693 0.02248979 -1.271978
              CHANNELS 3 Zrotation Xrotation Yrotation
              End Site
              {
                OFFSET -15 0 0
              }
            }
          }
        }
      }
      JOINT left_manubrium
      {
        OFFSET 5.722621 16.35077 3.967754
        CHANNELS 3 Zrotation Xrotation Yrotation
        JOINT left_clavicle
        {
          OFFSET 13.16364 1.694482 -4.693211
          CHANNELS 3 Zrotation Xrotation Yrotation
          JOINT left_humerus
          {
            OFFSET 29.39168 -1.063119 -2.237045
            CHANNELS 3 Zrotation Xrotation Yrotation
            JOINT left_radius
            {
              OFFSET 24.59957 -0.9528479 0.9047498
              CHANNELS 3 Zrotation Xrotation Yrotation
              End Site
              {
                OFFSET 15 -0 -0
              }
            }
          }
        }
      }
    }
  }
}
MOTION
Frames: 11
Frame Time: 0.0416666666667
0 103.5113 0 0.7371664 -1.890155 -0.3653192 3.451736 -14.60214 10.24291 -0 42.82077 -0 -7.002069 -16.72068 -3.087761 -6.783466 10.05287 -22.7919 -0 7.238389 -0 13.76268 -11.4368 29.62691 -3.809928 -3.988555 4.402623 2.716885 11.19198 -7.897034 0.9987595 22.03409 6.889354 3.496332 -23.69282 8.886884 7.630929 -20.21317 12.44114 85.03691 38.01097 -17.77775 -0 0 16.26086 -8.381259 7.641044 4.765862 5.198732 -19.7272 -2.498984 -92.28084 20.25042 20.58131 0 0 -11.80688 14.39978 15.0647 -3.61812
0.3325482 104.0774 1.445349 0.7275142 -1.825564 -0.7053611 3.399029 -15.47152 9.748495 -0 41.76393 -0 -7.001227 -16.27979 -3.01645 -6.744992 10.2479 -22.42422 -0 6.945017 -0 13.42092 -12.0017 29.07171 -3.809721 -3.825126 4.343535 2.692512 11.06371 -7.888151 1.011832 22.0267 6.887144 3.497504 -23.63051 8.864962 7.423011 -20.03826 12.3457 85.20349 37.67458 -17.90646 -0 0 15.98341 -8.586105 7.649018 4.799685 5.38168 -19.91545 -2.51316 -91.89009 20.1307 20.00404 0 0 -12.33592 14.56776 15.01332 -3.849977
0.6942851 104.296 3.213384 0.6673764 -0.8424022 -0.9354116 3.821722 -19.13132 8.842163 -0 36.55811 -0 -6.312502 -14.69875 -2.533074 -6.808255 10.37536 -21.59073 -0 5.974095 -0 11.97509 -15.01106 27.76119 -3.755014 -3.444622 4.727773 2.636059 10.57443 -7.852157 1.167338 21.43326 7.008743 3.70451 -24.08243 9.026929 7.004787 -19.82554 12.06123 85.22874 36.74477 -18.28398 -0 0 16.1854 -8.743448 8.108667 4.467434 6.50964 -20.58211 -1.932671 -91.70749 19.93861 19.39924 0 0 -14.1238 14.63786 15.01157 -3.994514
1.059892 104.2153 5.300751 0.5766066 -0.02117643 -1.030681 4.163136 -22.3184 7.937703 -0 32.22909 -0 -5.912168 -13.08479 -2.168507 -6.797411 10.67144 -20.75708 -0 5.381791 -0 10.48839 -17.52926 26.33816 -3.669693 -3.078729 4.91249 2.604414 10.12293 -7.851629 1.279215 20.99507 7.106094 3.86374 -24.44136 9.12835 6.579335 -19.53847 11.78649 85.38179 35.89834 -18.71048 -0 0 16.10954 -8.925604 8.417402 4.257013 7.393479 -21.13531 -1.490445 -91.45801 19.94099 18.7534 0 0 -15.70494 14.52814 15.05244 -3.909217
1.421177 103.8806 7.73408 0.4205019 0.8662885 -0.985207 4.592935 -25.48824 7.08564 -0 28.01915 -0 -5.667738 -11.2012 -1.795633 -6.74023 11.03158 -19.87896 -0 5.128322 -0 8.861936 -19.91449 24.79147 -3.520962 -2.728251 5.032753 2.596321 9.697062 -7.888281 1.369812 20.5363 7.22511 4.047459 -24.87581 9.218609 6.175856 -19.23533 11.5202 85.5719 35.13281 -19.20099 -0 0 15.96075 -9.10976 8.712024 4.075863 8.233297 -21.67187 -1.041351 -91.28497 19.96386 18.2166 0 0 -17.188 14.35233 15.09593 -3.730996
1.762266 103.3433 10.54909 0.1847308 1.740646 -0.786921 5.077924 -28.50716 6.259233 -0 24.14114 -0 -5.645038 -9.125308 -1.458683 -6.604289 11.52722 -18.93454 -0 5.341042 -0 7.06121 -22.00377 23.04292 -3.296698 -2.38411 5.01991 2.615631 9.292027 -7.966656 1.432074 20.12041 7.344875 4.224751 -25.32052 9.276558 5.766787 -18.87121 11.25428 85.84897 34.42646 -19.7673 -0 0 15.63491 -9.312615 8.945548 3.956902 8.941841 -22.15845 -0.6529231 -91.11126 20.08147 17.70112 0 0 -18.54931 14.05009 15.14346 -3.388037
2.068727 102.6759 13.78826 -0.1571602 2.590836 -0.4318495 5.661029 -31.25896 5.520353 -0 20.71384 -0 -5.877583 -6.898419 -1.150544 -6.370913 12.14172 -17.93019 -0 6.18315 -0 5.112044 -23.64321 21.1098 -2.969379 -2.062343 4.863866 2.667777 8.930992 -8.093783 1.458627 19.74444 7.466421 4.395785 -25.78011 9.2971 5.373309 -18.45469 11.00165 86.20578 33.82327 -20.40176 -0 0 15.13987 -9.532343 9.124601 3.904885 9.47748 -22.57732 -0.3454796 -90.95769 20.26536 17.25322 0 0 -19.71098 13.63354 15.1682 -2.891355
2.326216 101.971 17.50199 -0.6250376 3.360917 0.07254817 6.361355 -33.55283 4.911386 -0 17.91622 -0 -6.408648 -4.634377 -0.8806223 -6.013034 12.86637 -16.86428 -0 7.872256 -0 3.0568 -24.61005 19.00516 -2.511969 -1.775785 4.539286 2.756405 8.635118 -8.273602 1.440158 19.43275 7.579782 4.545762 -26.2205 9.264061 5.005184 -17.97858 10.77367 86.6515 33.35032 -21.09337 -0 0 14.44772 -9.777764 9.245809 3.935638 9.768822 -22.90111 -0.1674283 -90.80439 20.50275 16.86911 0 0 -20.59806 13.10503 15.13989 -2.243955
2.525037 101.3463 21.74071 -1.226323 3.977369 0.6967103 7.192823 -35.11648 4.491955 -0 15.95883 -0 -7.25907 -2.528834 -0.6594011 -5.509033 13.63271 -15.75163 -0 10.6741 -0 0.988559 -24.63458 16.79436 -1.898968 -1.544139 4.045167 2.880582 8.434027 -8.502884 1.366298 19.20716 7.673417 4.658653 -26.59684 9.158149 4.68636 -17.45208 10.59077 87.1748 33.04557 -21.80808 -0 0 13.56697 -10.05279 9.320958 4.05921 9.74154 -23.09628 -0.1677685 -90.6437 20.76157 16.56959 0 0 -21.11699 12.47819 15.01765 -1.463867
2.664983 100.939 26.54055 -1.93526 4.335342 1.376359 8.121092 -35.6047 4.296267 -0 15.03368 -0 -8.400315 -0.8849313 -0.514776 -4.852743 14.28869 -14.61767 -0 14.88157 -0 -0.9675611 -23.44498 14.57891 -1.12253 -1.383054 3.419809 3.027854 8.355511 -8.761145 1.230848 19.09491 7.728362 4.713331 -26.83422 8.95551 4.44426 -16.8959 10.47794 87.74231 32.92905 -22.48002 -0 0 12.54376 -10.35931 9.379309 4.274975 9.334376 -23.12802 -0.391254 -90.46223 21.00322 16.36952 0 0 -21.1908 11.77092 14.75885 -0.5796274
2.760879 100.8908 31.89601 -2.669336 4.312418 2.002727 9.02676 -34.65207 4.304261 -0 15.22182 -0 -9.711061 -0.09264708 -0.5000879 -4.075796 14.54318 -13.50256 -0 20.74858 -0 -2.691591 -20.87618 12.48369 -0.2172845 -1.288871 2.77528 3.165323 8.415098 -8.996507 1.041694 19.12091 7.718743 4.691127 -26.83409 8.636959 4.307272 -16.3515 10.4613 88.27943 32.98537 -22.99484 -0 0 11.49699 -10.69099 9.477565 4.557939 8.53948 -22.9704 -0.850427 -90.25873 21.19475 16.29104 0 0 -20.78806 10.99842 14.33556 0.3787672
